<svg width="300" height="207" viewBox="0 0 300 207" fill="none" xmlns="http://www.w3.org/2000/svg">
<path d="M128.91 42.15L127.54 42.11C127.44 43.16 127.22 44.31 126.93 45.25C126.51 46.6 126.13 47.24 125.7 47.24C125.32 47.24 124.92 46.75 124.92 45.74C124.92 44.48 126.08 42.75 128.2 42.75C129.93 42.75 130.91 43.87 130.91 45.44C130.91 46.91 129.91 47.82 128.64 48.13C128.37 48.19 128.09 48.24 127.7 48.29L128.46 49.47C130.98 49.08 132.27 47.59 132.27 45.49C132.27 43.3 130.7 41.58 128.23 41.58C125.64 41.58 123.63 43.56 123.63 45.86C123.63 47.55 124.55 48.78 125.67 48.78C126.76 48.78 127.62 47.54 128.22 45.52C128.57 44.34 128.77 43.17 128.91 42.15ZM137.73 41.02L136.2 40.9C136.23 41.14 136.22 41.55 136.17 41.92C136.1 42.51 135.87 43.61 135.62 44.55C135.24 45.95 134.48 48.04 133.89 49.05L135.28 49.52C135.83 48.33 136.5 46.29 136.86 44.89C137.13 43.87 137.38 42.65 137.52 41.97C137.57 41.75 137.66 41.3 137.73 41.02ZM135.18 42.52C134.77 42.52 134.44 42.5 133.92 42.44L133.96 43.69C134.31 43.71 134.68 43.73 135.17 43.73C136.3 43.73 137.87 43.56 139.11 43.27V42.02C137.81 42.33 136.4 42.52 135.18 42.52ZM138.32 44.05V45.22C138.95 45.14 139.57 45.11 140.26 45.11C140.86 45.11 141.47 45.18 141.98 45.24L142 44.04C141.42 43.98 140.82 43.95 140.25 43.95C139.6 43.95 138.88 43.99 138.32 44.05ZM138.86 46.56L137.67 46.45C137.59 46.84 137.5 47.32 137.5 47.79C137.5 48.8 138.4 49.37 140.09 49.37C140.89 49.37 141.56 49.31 142.12 49.23L142.17 47.96C141.46 48.09 140.77 48.16 140.1 48.16C139.02 48.16 138.73 47.83 138.73 47.39C138.73 47.17 138.79 46.85 138.86 46.56ZM149.99 41.16L148.6 41.03C148.61 41.27 148.58 41.69 148.53 41.98C148.32 43.21 147.74 45.05 146.97 46.18C146.45 46.97 145.9 47.61 145.38 47.61C145.03 47.61 144.82 47.3 144.82 46.81C144.82 45.99 145.28 45.01 146.06 44.46C146.76 43.95 147.57 43.57 148.61 43.57C150.05 43.57 150.98 44.51 150.98 45.87C150.98 47.12 150.12 48.24 147.92 48.43L148.68 49.59C150.77 49.27 152.28 48.05 152.28 45.93C152.28 43.85 150.8 42.46 148.74 42.46C147.67 42.46 146.66 42.71 145.59 43.4C144.42 44.15 143.65 45.58 143.65 46.92C143.65 48.21 144.41 48.91 145.24 48.91C146.16 48.91 146.8 48.39 147.72 47.23C148.68 46.02 149.33 43.94 149.75 42.17C149.81 41.93 149.9 41.44 149.99 41.16ZM145.77 41.49L144.45 41.91C144.63 42.27 144.75 42.59 144.86 42.94C145.32 44.42 145.92 46.02 146.53 46.91C146.85 47.42 147.15 47.8 147.54 48.24L148.56 47.43C148.09 46.99 147.62 46.36 147.28 45.82C146.82 45.1 146.29 43.57 145.98 42.45C145.9 42.16 145.82 41.83 145.77 41.49ZM158.91 42.15L157.54 42.11C157.44 43.16 157.22 44.31 156.93 45.25C156.51 46.6 156.13 47.24 155.7 47.24C155.32 47.24 154.92 46.75 154.92 45.74C154.92 44.48 156.08 42.75 158.2 42.75C159.93 42.75 160.91 43.87 160.91 45.44C160.91 46.91 159.91 47.82 158.64 48.13C158.37 48.19 158.09 48.24 157.7 48.29L158.46 49.47C160.98 49.08 162.27 47.59 162.27 45.49C162.27 43.3 160.7 41.58 158.23 41.58C155.64 41.58 153.63 43.56 153.63 45.86C153.63 47.55 154.55 48.78 155.67 48.78C156.76 48.78 157.62 47.54 158.22 45.52C158.57 44.34 158.77 43.17 158.91 42.15Z" fill="black"/>
<path d="M42.588 137H53.836V90.108H69.72V80.76H26.704V90.108H42.588V137ZM89.7199 138.064C94.9639 138.064 100.284 136.316 104.464 133.428L100.74 126.512C97.6239 128.412 94.5839 129.476 91.1639 129.476C84.8559 129.476 80.2959 125.904 79.3079 118.912H105.604C105.832 117.848 106.06 115.872 106.06 113.744C106.06 101.964 100.056 93.452 88.2759 93.452C78.2439 93.452 68.5159 101.964 68.5159 115.796C68.5159 129.856 77.7879 138.064 89.7199 138.064ZM79.1559 111.464C80.0679 105.232 84.0199 102.04 88.5039 102.04C93.9759 102.04 96.5599 105.688 96.5599 111.464H79.1559ZM110.396 137H122.328L128.332 124.536C129.624 121.648 130.992 118.76 132.36 115.264H132.664C134.336 118.76 135.704 121.648 137.148 124.536L143.456 137H155.92L140.036 108.576L154.856 80.76H143L137.68 92.388C136.464 95.048 135.324 97.784 133.956 101.28H133.652C131.98 97.784 130.764 95.048 129.396 92.388L123.772 80.76H111.308L126.204 108.044L110.396 137Z" fill="black"/>
<path d="M42.588 137H41.588V138H42.588V137ZM53.836 137V138H54.836V137H53.836ZM53.836 90.108V89.108H52.836V90.108H53.836ZM69.72 90.108V91.108H70.72V90.108H69.72ZM69.72 80.76H70.72V79.76H69.72V80.76ZM26.704 80.76V79.76H25.704V80.76H26.704ZM26.704 90.108H25.704V91.108H26.704V90.108ZM42.588 90.108H43.588V89.108H42.588V90.108ZM42.588 138H53.836V136H42.588V138ZM54.836 137V90.108H52.836V137H54.836ZM53.836 91.108H69.72V89.108H53.836V91.108ZM70.72 90.108V80.76H68.72V90.108H70.72ZM69.72 79.76H26.704V81.76H69.72V79.76ZM25.704 80.76V90.108H27.704V80.76H25.704ZM26.704 91.108H42.588V89.108H26.704V91.108ZM41.588 90.108V137H43.588V90.108H41.588ZM104.464 133.428L105.032 134.251L105.769 133.742L105.344 132.954L104.464 133.428ZM100.74 126.512L101.62 126.038L101.12 125.109L100.219 125.658L100.74 126.512ZM79.3079 118.912V117.912H78.1566L78.3177 119.052L79.3079 118.912ZM105.604 118.912V119.912H106.412L106.582 119.122L105.604 118.912ZM79.1559 111.464L78.1664 111.319L77.9989 112.464H79.1559V111.464ZM96.5599 111.464V112.464H97.5599V111.464H96.5599ZM89.7199 139.064C95.1749 139.064 100.692 137.25 105.032 134.251L103.895 132.605C99.8759 135.382 94.7528 137.064 89.7199 137.064V139.064ZM105.344 132.954L101.62 126.038L99.8594 126.986L103.583 133.902L105.344 132.954ZM100.219 125.658C97.2158 127.49 94.3544 128.476 91.1639 128.476V130.476C94.8133 130.476 98.032 129.334 101.26 127.366L100.219 125.658ZM91.1639 128.476C88.2001 128.476 85.7298 127.64 83.8934 126.058C82.0591 124.479 80.765 122.076 80.298 118.772L78.3177 119.052C78.8388 122.74 80.3187 125.619 82.5884 127.574C84.856 129.526 87.8197 130.476 91.1639 130.476V128.476ZM79.3079 119.912H105.604V117.912H79.3079V119.912ZM106.582 119.122C106.827 117.976 107.06 115.928 107.06 113.744H105.06C105.06 115.816 104.837 117.72 104.626 118.702L106.582 119.122ZM107.06 113.744C107.06 107.697 105.52 102.374 102.356 98.5437C99.1713 94.687 94.4285 92.452 88.2759 92.452V94.452C93.9033 94.452 98.0524 96.473 100.814 99.8173C103.598 103.188 105.06 108.011 105.06 113.744H107.06ZM88.2759 92.452C77.6493 92.452 67.5159 101.455 67.5159 115.796H69.5159C69.5159 102.473 78.8384 94.452 88.2759 94.452V92.452ZM67.5159 115.796C67.5159 123.053 69.9138 128.887 73.9363 132.91C77.9554 136.929 83.5217 139.064 89.7199 139.064V137.064C83.9861 137.064 78.9503 135.095 75.3505 131.495C71.754 127.899 69.5159 122.599 69.5159 115.796H67.5159ZM80.1453 111.609C80.5748 108.674 81.7062 106.537 83.1786 105.141C84.648 103.747 86.5077 103.04 88.5039 103.04V101.04C86.0161 101.04 83.6578 101.929 81.8022 103.689C79.9496 105.447 78.649 108.022 78.1664 111.319L80.1453 111.609ZM88.5039 103.04C91.0006 103.04 92.704 103.86 93.8083 105.217C94.9405 106.608 95.5599 108.706 95.5599 111.464H97.5599C97.5599 108.446 96.8873 105.832 95.3594 103.955C93.8038 102.044 91.4791 101.04 88.5039 101.04V103.04ZM96.5599 110.464H79.1559V112.464H96.5599V110.464ZM110.396 137L109.518 136.521L108.711 138H110.396V137ZM122.328 137V138H122.956L123.229 137.434L122.328 137ZM128.332 124.536L129.233 124.97L129.239 124.957L129.245 124.944L128.332 124.536ZM132.36 115.264V114.264H131.677L131.429 114.9L132.36 115.264ZM132.664 115.264L133.566 114.833L133.294 114.264H132.664V115.264ZM137.148 124.536L136.254 124.983L136.256 124.988L137.148 124.536ZM143.456 137L142.564 137.452L142.841 138H143.456V137ZM155.92 137V138H157.624L156.793 136.512L155.92 137ZM140.036 108.576L139.153 108.106L138.897 108.587L139.163 109.064L140.036 108.576ZM154.856 80.76L155.739 81.2302L156.522 79.76H154.856V80.76ZM143 80.76V79.76H142.358L142.091 80.344L143 80.76ZM137.68 92.388L136.771 91.972L136.771 91.9722L137.68 92.388ZM133.956 101.28V102.28H134.639L134.887 101.644L133.956 101.28ZM133.652 101.28L132.75 101.711L133.022 102.28H133.652V101.28ZM129.396 92.388L128.496 92.8234L128.501 92.8344L128.507 92.8453L129.396 92.388ZM123.772 80.76L124.672 80.3246L124.399 79.76H123.772V80.76ZM111.308 80.76V79.76H109.623L110.43 81.2392L111.308 80.76ZM126.204 108.044L127.082 108.523L127.343 108.044L127.082 107.565L126.204 108.044ZM110.396 138H122.328V136H110.396V138ZM123.229 137.434L129.233 124.97L127.431 124.102L121.427 136.566L123.229 137.434ZM129.245 124.944C130.527 122.078 131.912 119.154 133.291 115.628L131.429 114.9C130.072 118.366 128.721 121.218 127.419 124.128L129.245 124.944ZM132.36 116.264H132.664V114.264H132.36V116.264ZM131.762 115.695C133.431 119.186 134.805 122.085 136.254 124.983L138.042 124.089C136.603 121.211 135.241 118.334 133.566 114.833L131.762 115.695ZM136.256 124.988L142.564 137.452L144.348 136.548L138.04 124.084L136.256 124.988ZM143.456 138H155.92V136H143.456V138ZM156.793 136.512L140.909 108.088L139.163 109.064L155.047 137.488L156.793 136.512ZM140.919 109.046L155.739 81.2302L153.973 80.2898L139.153 108.106L140.919 109.046ZM154.856 79.76H143V81.76H154.856V79.76ZM142.091 80.344L136.771 91.972L138.589 92.804L143.909 81.176L142.091 80.344ZM136.771 91.9722C135.544 94.6544 134.397 97.4086 133.025 100.916L134.887 101.644C136.251 98.1594 137.384 95.4416 138.59 92.8038L136.771 91.9722ZM133.956 100.28H133.652V102.28H133.956V100.28ZM134.554 100.849C132.898 97.3866 131.661 94.6062 130.285 91.9306L128.507 92.8453C129.867 95.4898 131.062 98.1814 132.75 101.711L134.554 100.849ZM130.296 91.9526L124.672 80.3246L122.872 81.1954L128.496 92.8234L130.296 91.9526ZM123.772 79.76H111.308V81.76H123.772V79.76ZM110.43 81.2392L125.326 108.523L127.082 107.565L112.186 80.2808L110.43 81.2392ZM125.326 107.565L109.518 136.521L111.274 137.479L127.082 108.523L125.326 107.565Z" fill="black"/>
<path d="M41.088 135H52.336V88.108H68.22V78.76H25.204V88.108H41.088V135ZM88.2199 136.064C93.4639 136.064 98.7839 134.316 102.964 131.428L99.2399 124.512C96.1239 126.412 93.0839 127.476 89.6639 127.476C83.3559 127.476 78.7959 123.904 77.8079 116.912H104.104C104.332 115.848 104.56 113.872 104.56 111.744C104.56 99.964 98.5559 91.452 86.7759 91.452C76.7439 91.452 67.0159 99.964 67.0159 113.796C67.0159 127.856 76.2879 136.064 88.2199 136.064ZM77.6559 109.464C78.5679 103.232 82.5199 100.04 87.0039 100.04C92.4759 100.04 95.0599 103.688 95.0599 109.464H77.6559ZM108.896 135H120.828L126.832 122.536C128.124 119.648 129.492 116.76 130.86 113.264H131.164C132.836 116.76 134.204 119.648 135.648 122.536L141.956 135H154.42L138.536 106.576L153.356 78.76H141.5L136.18 90.388C134.964 93.048 133.824 95.784 132.456 99.28H132.152C130.48 95.784 129.264 93.048 127.896 90.388L122.272 78.76H109.808L124.704 106.044L108.896 135Z" fill="white"/>
<path d="M41.088 135H40.088V136H41.088V135ZM52.336 135V136H53.336V135H52.336ZM52.336 88.108V87.108H51.336V88.108H52.336ZM68.22 88.108V89.108H69.22V88.108H68.22ZM68.22 78.76H69.22V77.76H68.22V78.76ZM25.204 78.76V77.76H24.204V78.76H25.204ZM25.204 88.108H24.204V89.108H25.204V88.108ZM41.088 88.108H42.088V87.108H41.088V88.108ZM41.088 136H52.336V134H41.088V136ZM53.336 135V88.108H51.336V135H53.336ZM52.336 89.108H68.22V87.108H52.336V89.108ZM69.22 88.108V78.76H67.22V88.108H69.22ZM68.22 77.76H25.204V79.76H68.22V77.76ZM24.204 78.76V88.108H26.204V78.76H24.204ZM25.204 89.108H41.088V87.108H25.204V89.108ZM40.088 88.108V135H42.088V88.108H40.088ZM102.964 131.428L103.532 132.251L104.269 131.742L103.844 130.954L102.964 131.428ZM99.2399 124.512L100.12 124.038L99.6201 123.109L98.7193 123.658L99.2399 124.512ZM77.8079 116.912V115.912H76.6566L76.8177 117.052L77.8079 116.912ZM104.104 116.912V117.912H104.912L105.082 117.122L104.104 116.912ZM77.6559 109.464L76.6664 109.319L76.4989 110.464H77.6559V109.464ZM95.0599 109.464V110.464H96.0599V109.464H95.0599ZM88.2199 137.064C93.6749 137.064 99.1919 135.25 103.532 132.251L102.395 130.605C98.3759 133.382 93.2528 135.064 88.2199 135.064V137.064ZM103.844 130.954L100.12 124.038L98.3594 124.986L102.083 131.902L103.844 130.954ZM98.7193 123.658C95.7158 125.49 92.8544 126.476 89.6639 126.476V128.476C93.3133 128.476 96.532 127.334 99.7605 125.366L98.7193 123.658ZM89.6639 126.476C86.7001 126.476 84.2298 125.64 82.3934 124.058C80.5591 122.479 79.265 120.076 78.798 116.772L76.8177 117.052C77.3388 120.74 78.8187 123.619 81.0884 125.574C83.356 127.526 86.3197 128.476 89.6639 128.476V126.476ZM77.8079 117.912H104.104V115.912H77.8079V117.912ZM105.082 117.122C105.327 115.976 105.56 113.928 105.56 111.744H103.56C103.56 113.816 103.337 115.72 103.126 116.702L105.082 117.122ZM105.56 111.744C105.56 105.697 104.02 100.374 100.856 96.5437C97.6713 92.687 92.9285 90.452 86.7759 90.452V92.452C92.4033 92.452 96.5524 94.473 99.3143 97.8173C102.098 101.188 103.56 106.011 103.56 111.744H105.56ZM86.7759 90.452C76.1493 90.452 66.0159 99.4549 66.0159 113.796H68.0159C68.0159 100.473 77.3384 92.452 86.7759 92.452V90.452ZM66.0159 113.796C66.0159 121.053 68.4138 126.887 72.4363 130.91C76.4554 134.929 82.0217 137.064 88.2199 137.064V135.064C82.4861 135.064 77.4503 133.095 73.8505 129.495C70.254 125.899 68.0159 120.599 68.0159 113.796H66.0159ZM78.6453 109.609C79.0748 106.674 80.2062 104.537 81.6786 103.141C83.148 101.747 85.0077 101.04 87.0039 101.04V99.04C84.5161 99.04 82.1578 99.9293 80.3022 101.689C78.4496 103.447 77.149 106.022 76.6664 109.319L78.6453 109.609ZM87.0039 101.04C89.5006 101.04 91.204 101.86 92.3083 103.217C93.4405 104.608 94.0599 106.706 94.0599 109.464H96.0599C96.0599 106.446 95.3873 103.832 93.8594 101.955C92.3038 100.044 89.9791 99.04 87.0039 99.04V101.04ZM95.0599 108.464H77.6559V110.464H95.0599V108.464ZM108.896 135L108.018 134.521L107.211 136H108.896V135ZM120.828 135V136H121.456L121.729 135.434L120.828 135ZM126.832 122.536L127.733 122.97L127.739 122.957L127.745 122.944L126.832 122.536ZM130.86 113.264V112.264H130.177L129.929 112.9L130.86 113.264ZM131.164 113.264L132.066 112.833L131.794 112.264H131.164V113.264ZM135.648 122.536L134.754 122.983L134.756 122.988L135.648 122.536ZM141.956 135L141.064 135.452L141.341 136H141.956V135ZM154.42 135V136H156.124L155.293 134.512L154.42 135ZM138.536 106.576L137.653 106.106L137.397 106.587L137.663 107.064L138.536 106.576ZM153.356 78.76L154.239 79.2302L155.022 77.76H153.356V78.76ZM141.5 78.76V77.76H140.858L140.591 78.344L141.5 78.76ZM136.18 90.388L135.271 89.972L135.271 89.9722L136.18 90.388ZM132.456 99.28V100.28H133.139L133.387 99.6444L132.456 99.28ZM132.152 99.28L131.25 99.7115L131.522 100.28H132.152V99.28ZM127.896 90.388L126.996 90.8234L127.001 90.8344L127.007 90.8453L127.896 90.388ZM122.272 78.76L123.172 78.3246L122.899 77.76H122.272V78.76ZM109.808 78.76V77.76H108.123L108.93 79.2392L109.808 78.76ZM124.704 106.044L125.582 106.523L125.843 106.044L125.582 105.565L124.704 106.044ZM108.896 136H120.828V134H108.896V136ZM121.729 135.434L127.733 122.97L125.931 122.102L119.927 134.566L121.729 135.434ZM127.745 122.944C129.027 120.078 130.412 117.154 131.791 113.628L129.929 112.9C128.572 116.366 127.221 119.218 125.919 122.128L127.745 122.944ZM130.86 114.264H131.164V112.264H130.86V114.264ZM130.262 113.695C131.931 117.186 133.305 120.085 134.754 122.983L136.542 122.089C135.103 119.211 133.741 116.334 132.066 112.833L130.262 113.695ZM134.756 122.988L141.064 135.452L142.848 134.548L136.54 122.084L134.756 122.988ZM141.956 136H154.42V134H141.956V136ZM155.293 134.512L139.409 106.088L137.663 107.064L153.547 135.488L155.293 134.512ZM139.419 107.046L154.239 79.2302L152.473 78.2898L137.653 106.106L139.419 107.046ZM153.356 77.76H141.5V79.76H153.356V77.76ZM140.591 78.344L135.271 89.972L137.089 90.804L142.409 79.176L140.591 78.344ZM135.271 89.9722C134.044 92.6544 132.897 95.4086 131.525 98.9156L133.387 99.6444C134.751 96.1594 135.884 93.4416 137.09 90.8038L135.271 89.9722ZM132.456 98.28H132.152V100.28H132.456V98.28ZM133.054 98.8485C131.398 95.3866 130.161 92.6062 128.785 89.9306L127.007 90.8453C128.367 93.4898 129.562 96.1814 131.25 99.7115L133.054 98.8485ZM128.796 89.9526L123.172 78.3246L121.372 79.1954L126.996 90.8234L128.796 89.9526ZM122.272 77.76H109.808V79.76H122.272V77.76ZM108.93 79.2392L123.826 106.523L125.582 105.565L110.686 78.2808L108.93 79.2392ZM123.826 105.565L108.018 134.521L109.774 135.479L125.582 106.523L123.826 105.565Z" fill="black"/>
<path d="M181.552 117.392L179.656 118.16C180.304 119.096 181.048 120.512 181.528 121.496L183.448 120.68C183.016 119.792 182.152 118.256 181.552 117.392ZM184.384 116.312L182.488 117.08C183.16 117.992 183.928 119.384 184.432 120.392L186.328 119.576C185.896 118.736 185.032 117.2 184.384 116.312ZM169.408 134.264C169.408 137.12 170.2 138.44 175.672 138.44C178.264 138.44 181.12 138.2 183.112 137.912L183.208 134.648C180.832 135.128 178.168 135.44 175.648 135.44C173.008 135.44 172.6 134.936 172.6 133.424C172.6 130.76 172.6 124.184 172.6 121.28C172.6 120.464 172.696 119.24 172.792 118.52H169.216C169.336 119.24 169.408 120.464 169.408 121.28C169.408 124.208 169.408 132.296 169.408 134.264ZM184.528 123.728L182.224 121.928C181.768 122.192 181.192 122.336 180.52 122.504C178.336 123.032 167.032 125.24 163.792 125.624L164.368 128.792C167.392 128.096 178.504 125.912 179.968 125.6C179.296 126.848 177.712 129.056 176.128 130.472L178.768 132.032C180.496 130.328 182.68 127.04 183.736 125.024C183.952 124.616 184.312 124.064 184.528 123.728ZM193.816 118.208L192.712 121.064C196.096 121.496 202.888 123.008 205.696 124.04L206.92 121.064C203.896 120.008 196.984 118.592 193.816 118.208ZM192.736 124.664L191.608 127.568C195.184 128.144 201.352 129.536 204.088 130.592L205.264 127.592C202.264 126.56 196.168 125.24 192.736 124.664ZM191.488 131.552L190.288 134.552C194.128 135.152 201.736 136.808 204.976 138.128L206.296 135.128C202.984 133.904 195.616 132.176 191.488 131.552Z" fill="black"/>
<rect x="23" y="38" width="96" height="30" fill="black"/>
<path d="M30.392 43.016L28.664 45.656C30.248 46.544 32.744 48.152 34.088 49.088L35.864 46.448C34.616 45.56 31.976 43.88 30.392 43.016ZM25.952 60.056L27.752 63.2C29.864 62.816 33.32 61.616 35.768 60.248C39.68 57.968 43.088 54.944 45.296 51.608L43.448 48.344C41.552 51.776 38.192 55.064 34.112 57.344C31.496 58.784 28.64 59.6 25.952 60.056ZM26.696 48.488L24.968 51.128C26.576 51.992 29.072 53.6 30.416 54.56L32.192 51.872C30.944 50.984 28.304 49.352 26.696 48.488ZM57.752 43.208L54.056 42.488C54.008 43.232 53.816 44.144 53.552 44.936C53.264 45.848 52.808 47.12 52.16 48.224C51.248 49.736 49.712 51.896 47.984 53.168L51.008 54.992C52.592 53.576 54.224 51.272 55.184 49.376C55.808 48.152 56.552 46.376 56.96 45.176C57.176 44.648 57.488 43.832 57.752 43.208ZM53.96 46.928L53.72 49.952C55.88 49.952 64.976 49.952 66.656 49.952C67.208 49.952 68.24 49.952 69.152 50.024V46.76C68.36 46.88 67.256 46.928 66.656 46.928C65 46.928 55.88 46.928 53.96 46.928ZM63.344 48.656H60.008C59.912 54.44 57.776 57.752 55.04 59.84C54.488 60.32 53.648 60.8 52.784 61.16L56.024 63.32C60.656 60.416 63.176 55.736 63.344 48.656ZM81.272 50.768L79.136 52.952C81.944 54.728 86.504 58.088 88.592 60.056L90.896 57.32C88.664 55.544 84.224 52.472 81.272 50.768ZM92.576 46.688L90.128 45.176C89.576 45.344 88.784 45.464 88.04 45.464H81.2L80.096 48.176H88.208C87.752 50.048 86.264 52.808 84.656 54.704C82.592 57.104 79.736 59.624 74.72 61.184L77.504 63.584C82.088 61.856 85.16 59.168 87.416 56.36C89.576 53.696 91.04 50.624 91.76 48.416C91.976 47.816 92.288 47.144 92.576 46.688ZM84.632 42.992L81.152 41.912C80.936 42.752 80.432 43.856 80.072 44.432C78.848 46.52 76.64 49.808 72.44 52.4L75.008 54.392C78.464 52.016 81.536 48.344 83.144 45.44C83.432 44.936 84.056 43.832 84.632 42.992ZM96.488 52.688L97.976 55.712C101.768 54.584 105.656 52.784 108.368 51.176C111.2 49.472 114.128 47.216 116.312 45.008L113.72 42.56C112.16 44.456 109.424 46.856 106.976 48.368C104.288 50.024 100.784 51.584 96.488 52.688ZM106.472 49.928V59.936C106.472 60.992 106.376 62.504 106.28 63.08H110.096C109.928 62.48 109.88 60.992 109.88 59.936V49.112L106.472 49.928Z" fill="white"/>
</svg>
